<svg width="48" height="48" viewBox="0 0 48 48" fill="none" xmlns="http://www.w3.org/2000/svg">
<rect x="0.5" y="0.5" width="47" height="47" rx="23.5" stroke="#F24E1E"/>
<path d="M33.707 32.292C33.7999 32.3849 33.8736 32.4952 33.9238 32.6166C33.9741 32.738 34 32.8681 34 32.9995C34 33.1309 33.9741 33.261 33.9238 33.3824C33.8736 33.5038 33.7999 33.6141 33.707 33.707C33.6141 33.7999 33.5038 33.8736 33.3824 33.9238C33.261 33.9741 33.1309 34 32.9995 34C32.8681 34 32.738 33.9741 32.6166 33.9238C32.4952 33.8736 32.3849 33.7999 32.292 33.707L24 25.4137L15.708 33.707C15.5203 33.8946 15.2658 34 15.0005 34C14.7352 34 14.4807 33.8946 14.293 33.707C14.1054 33.5193 14 33.2648 14 32.9995C14 32.7341 14.1054 32.4797 14.293 32.292L22.5863 24L14.293 15.708C14.1054 15.5203 14 15.2658 14 15.0005C14 14.7352 14.1054 14.4807 14.293 14.293C14.4807 14.1054 14.7352 14 15.0005 14C15.2658 14 15.5203 14.1054 15.708 14.293L24 22.5863L32.292 14.293C32.4797 14.1054 32.7341 14 32.9995 14C33.2648 14 33.5193 14.1054 33.707 14.293C33.8946 14.4807 34 14.7352 34 15.0005C34 15.2658 33.8946 15.5203 33.707 15.708L25.4137 24L33.707 32.292Z" fill="#F24E1E"/>
</svg>
